<?xml version="1.0" encoding="utf-8"?>
<!-- Generator: Adobe Illustrator 25.2.1, SVG Export Plug-In . SVG Version: 6.00 Build 0)  -->
<svg version="1.1" id="Layer_2_1_" xmlns="http://www.w3.org/2000/svg" xmlns:xlink="http://www.w3.org/1999/xlink" x="0px" y="0px"
	 viewBox="0 0 2246.464 506.912" style="enable-background:new 0 0 2246.464 506.912;" xml:space="preserve">
<rect width="2246.464" height="506.912"/>
<g id="starkX">
	<rect x="987.53" y="295.498" style="fill:none;" width="140.5" height="33"/>
	<path style="fill:#FFFFFF;" d="M686.032,271.498h-127v-33h158v-24h-144.5c-20.75,0-37.5,16.75-37.5,37.5v6
		c0,20.75,16.75,37.5,37.5,37.5h127v33h-158v24h144.5c20.75,0,37.5-16.75,37.5-37.5v-6
		C723.532,288.248,706.782,271.498,686.032,271.498z"/>
	<path style="fill:#FFFFFF;" d="M781.031,163.498h-24v151.5c0,20.75,16.75,37.5,37.5,37.5h144.5v-24h-158v-90h158v-24h-158V163.498z
		"/>
	<path style="fill:#FFFFFF;" d="M1114.53,214.498h-144.5v24h158v33h-127c-20.75,0-37.5,16.75-37.5,37.5v6
		c0,20.75,16.75,37.5,37.5,37.5h151v-100.5C1152.03,231.248,1135.28,214.498,1114.53,214.498z M1128.03,328.498h-140.5v-33h140.5
		V328.498z"/>
	<path style="fill:#FFFFFF;" d="M1337.027,214.498h-144.5v138h24v-114h134v45h24v-31.5
		C1374.527,231.248,1357.777,214.498,1337.027,214.498z"/>
	<rect x="1408.026" y="163.498" style="fill:#FFFFFF;" width="24" height="189"/>
	<path style="fill:#FFFFFF;" d="M1592.276,214.498h-52.5c0,0,0,0-87.25,44.5c-8.75,4.5-14.75,13.5-14.75,24s6,19.5,14.75,24
		l89.25,45.5h52.25l-136.75-69.5L1592.276,214.498z"/>
	<path style="fill:#FFFFFF;" d="M1742.372,234.525l-78.324-61.425h-51.35l114.074,89.048l-115.699,90.35
		c22.692,0.26,45.383,0.52,68.075,0.779c21.075-21.168,42.149-42.336,63.224-63.504c8.125-6.5,13.975-16.25,13.975-27.625
		C1756.347,250.774,1750.497,241.025,1742.372,234.525z"/>
	<path style="fill:#FFFFFF;" d="M1869.047,199.639c-2.07,1.932-1.917,1.576-2.227,1.805c-6.534,4.811-13.59,6.079-18.64,6.378
		c0.154-1.59,0.234-4.933-1.684-8.231c-2.695-4.635-8.229-7.272-14.263-6.943c0.473-0.89,0.92-1.925,1.264-3.107
		c0.075-0.259,0.142-0.513,0.202-0.763c1.495-1.075,2.985-2.135,4.472-3.185c-21.271,13.048-47.298,30.808-64.6,48.931
		c-7.268,7.613-13.976,16.315-13.976,27.624c0,11.375,5.851,21.125,13.976,27.625l79.949,62.725h51.35
		c-38.471-29.162-76.943-58.323-115.414-87.485c33.552-27.179,67.104-54.358,100.655-81.537c-0.322,0.23-0.656,0.464-0.985,0.691
		C1884.942,187.007,1871.35,197.489,1869.047,199.639z"/>
	<path style="fill:#FFFFFF;" d="M2190.519,64.876c-15.78,1.459-21.385,2.112-42.541,5.03c-18.122,2.496-19.389,2.726-38.202,6.143
		c-92.077,16.724-156.839,45.343-156.839,45.343c-30.443,12.975-70.67,33.066-114.766,64.201c-1.486,1.05-2.977,2.11-4.472,3.185
		c-0.06,0.249-0.127,0.504-0.202,0.763c-0.344,1.181-0.792,2.217-1.264,3.107c6.034-0.329,11.568,2.308,14.263,6.943
		c1.917,3.297,1.837,6.641,1.684,8.231c5.049-0.299,12.106-1.567,18.64-6.378c0.31-0.228,0.156,0.128,2.227-1.805
		c2.304-2.15,15.895-12.632,20.08-15.473c0.329-0.227,0.663-0.461,0.985-0.691c0.879-0.627,1.662-1.217,1.971-1.498
		c0.691-0.614,7.909-5.644,17.661-12.286c5.375-3.686,12.324-8.063,23.804-14.974c23.036-13.937,55.825-30.37,79.859-40.007
		c2.112-0.845,6.066-2.457,8.831-3.647c2.726-1.152,5.951-2.419,7.103-2.803s5.068-1.881,8.639-3.263
		c3.609-1.382,7.141-2.688,7.871-2.88c0.729-0.154,4.454-1.421,8.255-2.803c12.593-4.492,37.434-12.171,48.76-15.012
		c2.956-0.768,8.216-2.15,11.71-3.072c3.494-0.921,7.372-1.881,8.639-2.15c1.267-0.23,4.031-0.845,6.143-1.344
		c10.789-2.572,15.665-3.686,18.813-4.262c1.92-0.346,7.794-1.459,13.054-2.457c11.058-2.15,18.045-3.302,31.483-5.183
		c5.298-0.729,10.558-1.497,11.71-1.689C2209.026,63.417,2203.228,63.724,2190.519,64.876z"/>
</g>
<g id="heart">
	<path style="fill:#FFFFFF;" d="M207.51,447.929c-7.1-2.1-16.6-5.2-21-7c-9.1-3.6-25.8-12.1-29.5-14.9l-2.5-1.9l2.5-4.4
		c8.9-15.8,31.1-51.4,32.3-51.6c0.9-0.2,9.6,13.4,25.6,40.2c13.2,22.2,24.4,41.1,24.7,42c0.5,1.4-0.6,1.6-9.2,1.5
		C222.01,451.729,218.51,451.129,207.51,447.929z"/>
	<path style="fill:#FFFFFF;" d="M284.01,450.029c0-2.6,47.7-83.2,49.6-83.8c0.9-0.3,22.5,34,32.5,51.4c2.4,4.2,2.4,4.2,0.4,6.2
		c-2.6,2.5-20.3,12-29.2,15.6c-13.8,5.5-29.9,9.6-43.3,11c-3.6,0.3-7.3,0.9-8.2,1.1C284.51,451.929,284.01,451.529,284.01,450.029z"
		/>
	<path style="fill:#FFFFFF;" d="M248.71,423.729c-3-5.1-12.3-21.2-20.7-35.8c-8.3-14.6-17.8-31-21-36.5s-12.5-21.7-20.8-36
		c-8.2-14.3-31.7-55-52.1-90.4s-37.1-65-37.1-65.7c0-0.8,0.4-1.4,0.8-1.4c0.5,0,15.2,8.3,32.8,18.5c21.4,12.5,33.1,19.9,35.4,22.4
		c3,3.4,30.1,49.1,77.3,130.5l12.7,22v40.2c0,23.8-0.4,40.5-0.9,40.9C254.61,432.729,251.71,428.829,248.71,423.729z"/>
	<path style="fill:#FFFFFF;" d="M264.41,430.629c-0.3-0.8-0.4-18.9-0.2-40.3l0.3-38.9l32.4-55.5c17.8-30.5,37.2-63.8,43-74
		c12.5-21.8,16.5-26.2,30.6-34.2c5.5-3.1,19.2-11.1,30.4-17.7c11.3-6.7,20.9-12.1,21.3-12.1s0.8,0.7,0.8,1.4
		c0,0.8-9.9,18.7-22.1,39.8c-26.2,45.4-48.9,84.8-73.4,127.3c-9.8,17.1-22.5,39.1-28.3,49c-5.7,9.9-15.3,26.7-21.4,37.3
		c-6,10.5-11.4,19.2-11.9,19.2S264.71,431.329,264.41,430.629z"/>
	<path style="fill:#FFFFFF;" d="M125.31,403.329c-28-23.4-51.3-57.2-62.2-90.4c-3.7-11.2-9.2-35.6-8.5-37.5
		c0.4-1.1,8.6-1.4,40.2-1.7c21.8-0.2,40.6,0,41.7,0.5c1.8,0.7,35.2,55.1,37.4,61c1.2,3.2,0.3,5.1-21.1,42.7
		c-10.3,18.2-18,30.6-19,30.8C132.91,408.929,129.11,406.429,125.31,403.329z"/>
	<path style="fill:#FFFFFF;" d="M378.31,390.229c-5.6-9.8-14.4-25.4-19.7-34.8c-5.3-9.3-9.6-18-9.6-19.4c0-1.3,7.9-15.6,17.7-31.9
		c15.1-25.2,18.2-29.7,21-30.8c4.5-1.9,77-2,79.6-0.1c1.7,1.1,1.6,1.8-0.3,11.2c-7.4,36-20,63-42.5,90.5c-10.2,12.4-31.9,33-34.9,33
		C388.91,407.929,383.81,399.929,378.31,390.229z"/>
	<path style="fill:#FFFFFF;" d="M252.71,316.729c-31.4-54.1-62.5-109.3-62.1-110c0.3-0.4,31.8-0.8,70-0.8c58.2,0,69.4,0.2,69.4,1.4
		c0,0.7-3.9,8-8.6,16.2s-13.9,24.1-20.4,35.4c-27.9,48.5-39.7,68.4-40.7,68.7C259.71,327.829,256.31,322.929,252.71,316.729z"/>
	<path style="fill:#FFFFFF;" d="M56.31,252.329c-1.2-2.9-0.6-23,1.1-35c2.2-15.9,10.1-41.3,15.3-49.3c1.3-2,1.7-2.1,2.8-1
		c0.8,0.8,6.4,10.4,12.6,21.4c6.1,11,16.3,29.1,22.5,40.2c10.9,19.3,12.4,22.6,10.7,23.6c-0.5,0.3-15.1,0.8-32.5,1.2
		C58.31,254.129,57.01,254.129,56.31,252.329z"/>
	<path style="fill:#FFFFFF;" d="M416.01,253.229c-8.5-0.2-15.8-0.7-16.3-1.2s0.8-4.1,3.1-8.3c14-25.3,41-73.1,42.8-75.5l2.1-2.8
		l3.3,6.5c9.2,18.3,15.2,46,14.8,68.1l-0.3,13.4h-17C439.21,253.529,424.51,253.329,416.01,253.229z"/>
	<path style="fill:#FFFFFF;" d="M227.01,191.029c0-0.8-8.2-1.1-28.5-1.1h-28.6l-5.7-3c-12.4-6.4-61.7-35.6-61.7-36.5
		c0-0.7,55.4-1.1,157.8-1.3c90.4-0.1,157.7,0.2,157.7,0.7s-0.6,1.3-1.2,1.9c-1.3,1-54.5,32.4-60.9,35.9c-3.2,1.7-7.6,1.8-63.9,2.3
		c-33.3,0.3-61.5,0.9-62.7,1.4C227.81,191.929,227.01,191.829,227.01,191.029z"/>
	<path style="fill:#FFFFFF;" d="M223.31,125.729c-1.1-1.3-10.7-17.4-21.3-35.8c-14.3-24.9-19-33.8-18.3-34.9
		c2.3-3.7,31.3-11.9,51.7-14.6c10-1.4,17.1-1.6,31-1.2c23.1,0.6,40.6,3.7,62.4,10.9c7.3,2.5,9.2,3.5,9.2,5c0,1.1-5.5,11.4-12.2,23.1
		s-15,26.3-18.5,32.4c-3.5,6.2-7.5,12.6-8.9,14.3l-2.6,3h-35.2h-35.3L223.31,125.729z"/>
	<path style="fill:#FFFFFF;" d="M328.51,125.929c-0.7-1.1,30.8-55.7,33.3-57.7c5.7-4.7,41,24.1,62.6,50.9c6.6,8.2,9.2,7.8-46.3,7.8
		C346.31,126.929,328.91,126.529,328.51,125.929z"/>
	<path style="fill:#FFFFFF;" d="M91.01,123.529c0-2.2,12.2-16.8,22.8-27.3c10.4-10.2,22-19.4,33.1-26c7.6-4.6,9.3-5,10.9-3
		c2.7,3.3,32.2,54.8,32.2,56.2c0,1.3-5.7,1.5-49.5,1.5C98.71,124.929,91.01,124.729,91.01,123.529z"/>
</g>
</svg>
