<?xml version="1.0" encoding="utf-8"?>
<!-- Generator: Adobe Illustrator 25.2.1, SVG Export Plug-In . SVG Version: 6.00 Build 0)  -->
<svg version="1.1" id="Layer_2_1_" xmlns="http://www.w3.org/2000/svg" xmlns:xlink="http://www.w3.org/1999/xlink" x="0px" y="0px"
	 width="2246.464px" height="506.912px" viewBox="0 0 2246.464 506.912" enable-background="new 0 0 2246.464 506.912"
	 xml:space="preserve">
<g>
	<rect x="987.53" y="295.498" width="140.5" height="33"/>
	<path d="M1832.233,192.648L1832.233,192.648c0.377-0.021,0.752-0.03,1.125-0.027
		C1832.985,192.618,1832.61,192.627,1832.233,192.648z"/>
	<path d="M0,0v506.912h2246.464V0H0z M447.71,165.429l3.3,6.5c9.2,18.3,15.2,46,14.8,68.1l-0.3,13.4h-17c-9.3,0.1-24-0.1-32.5-0.2
		c-8.5-0.2-15.8-0.7-16.3-1.2s0.8-4.1,3.1-8.3c14-25.3,41-73.1,42.8-75.5L447.71,165.429z M361.81,68.229c5.7-4.7,41,24.1,62.6,50.9
		c6.6,8.2,9.2,7.8-46.3,7.8c-31.8,0-49.2-0.4-49.6-1C327.81,124.829,359.31,70.229,361.81,68.229z M418.01,149.829
		c0,0.5-0.6,1.3-1.2,1.9c-1.3,1-54.5,32.4-60.9,35.9c-3.2,1.7-7.6,1.8-63.9,2.3c-33.3,0.3-61.5,0.9-62.7,1.4
		c-1.5,0.6-2.3,0.5-2.3-0.3c0-0.8-8.2-1.1-28.5-1.1h-28.6l-5.7-3c-12.4-6.4-61.7-35.6-61.7-36.5c0-0.7,55.4-1.1,157.8-1.3
		C350.71,149.029,418.01,149.329,418.01,149.829z M183.71,55.029c2.3-3.7,31.3-11.9,51.7-14.6c10-1.4,17.1-1.6,31-1.2
		c23.1,0.6,40.6,3.7,62.4,10.9c7.3,2.5,9.2,3.5,9.2,5c0,1.1-5.5,11.4-12.2,23.1c-6.7,11.7-15,26.3-18.5,32.4
		c-3.5,6.2-7.5,12.6-8.9,14.3l-2.6,3h-35.2h-35.3l-2-2.2c-1.1-1.3-10.7-17.4-21.3-35.8C187.71,65.029,183.01,56.129,183.71,55.029z
		 M113.81,96.229c10.4-10.2,22-19.4,33.1-26c7.6-4.6,9.3-5,10.9-3c2.7,3.3,32.2,54.8,32.2,56.2c0,1.3-5.7,1.5-49.5,1.5
		c-41.8,0-49.5-0.2-49.5-1.4C91.01,121.329,103.21,106.729,113.81,96.229z M57.41,217.329c2.2-15.9,10.1-41.3,15.3-49.3
		c1.3-2,1.7-2.1,2.8-1c0.8,0.8,6.4,10.4,12.6,21.4c6.1,11,16.3,29.1,22.5,40.2c10.9,19.3,12.4,22.6,10.7,23.6
		c-0.5,0.3-15.1,0.8-32.5,1.2c-30.5,0.7-31.8,0.7-32.5-1.1C55.11,249.429,55.71,229.329,57.41,217.329z M133.81,408.729
		c-0.9,0.2-4.7-2.3-8.5-5.4c-28-23.4-51.3-57.2-62.2-90.4c-3.7-11.2-9.2-35.6-8.5-37.5c0.4-1.1,8.6-1.4,40.2-1.7
		c21.8-0.2,40.6,0,41.7,0.5c1.8,0.7,35.2,55.1,37.4,61c1.2,3.2,0.3,5.1-21.1,42.7C142.51,396.129,134.81,408.529,133.81,408.729z
		 M230.41,451.829c-8.4-0.1-11.9-0.7-22.9-3.9c-7.1-2.1-16.6-5.2-21-7c-9.1-3.6-25.8-12.1-29.5-14.9l-2.5-1.9l2.5-4.4
		c8.9-15.8,31.1-51.4,32.3-51.6c0.9-0.2,9.6,13.4,25.6,40.2c13.2,22.2,24.4,41.1,24.7,42
		C240.11,451.729,239.01,451.929,230.41,451.829z M256.01,391.529c0,23.8-0.4,40.5-0.9,40.9c-0.5,0.3-3.4-3.6-6.4-8.7
		c-3-5.1-12.3-21.2-20.7-35.8c-8.3-14.6-17.8-31-21-36.5s-12.5-21.7-20.8-36c-8.2-14.3-31.7-55-52.1-90.4
		c-20.4-35.4-37.1-65-37.1-65.7c0-0.8,0.4-1.4,0.8-1.4c0.5,0,15.2,8.3,32.8,18.5c21.4,12.5,33.1,19.9,35.4,22.4
		c3,3.4,30.1,49.1,77.3,130.5l12.7,22V391.529z M260.31,327.629c-0.6,0.2-4-4.7-7.6-10.9c-31.4-54.1-62.5-109.3-62.1-110
		c0.3-0.4,31.8-0.8,70-0.8c58.2,0,69.4,0.2,69.4,1.4c0,0.7-3.9,8-8.6,16.2c-4.7,8.2-13.9,24.1-20.4,35.4
		C273.11,307.429,261.31,327.329,260.31,327.629z M265.91,431.929c-0.5,0-1.2-0.6-1.5-1.3c-0.3-0.8-0.4-18.9-0.2-40.3l0.3-38.9
		l32.4-55.5c17.8-30.5,37.2-63.8,43-74c12.5-21.8,16.5-26.2,30.6-34.2c5.5-3.1,19.2-11.1,30.4-17.7c11.3-6.7,20.9-12.1,21.3-12.1
		c0.4,0,0.8,0.7,0.8,1.4c0,0.8-9.9,18.7-22.1,39.8c-26.2,45.4-48.9,84.8-73.4,127.3c-9.8,17.1-22.5,39.1-28.3,49
		c-5.7,9.9-15.3,26.7-21.4,37.3C271.81,423.229,266.41,431.929,265.91,431.929z M366.51,423.829c-2.6,2.5-20.3,12-29.2,15.6
		c-13.8,5.5-29.9,9.6-43.3,11c-3.6,0.3-7.3,0.9-8.2,1.1c-1.3,0.4-1.8,0-1.8-1.5c0-2.6,47.7-83.2,49.6-83.8
		c0.9-0.3,22.5,34,32.5,51.4C368.51,421.829,368.51,421.829,366.51,423.829z M467.01,284.429c-7.4,36-20,63-42.5,90.5
		c-10.2,12.4-31.9,33-34.9,33c-0.7,0-5.8-8-11.3-17.7c-5.6-9.8-14.4-25.4-19.7-34.8c-5.3-9.3-9.6-18-9.6-19.4
		c0-1.3,7.9-15.6,17.7-31.9c15.1-25.2,18.2-29.7,21-30.8c4.5-1.9,77-2,79.6-0.1C469.01,274.329,468.91,275.029,467.01,284.429z
		 M723.532,314.998c0,20.75-16.75,37.5-37.5,37.5h-144.5v-24h158v-33h-127c-20.75,0-37.5-16.75-37.5-37.5v-6
		c0-20.75,16.75-37.5,37.5-37.5h144.5v24h-158v33h127c20.75,0,37.5,16.75,37.5,37.5V314.998z M939.031,238.498h-158v90h158v24
		h-144.5c-20.75,0-37.5-16.75-37.5-37.5v-151.5h24v51h158V238.498z M1152.03,352.498h-151c-20.75,0-37.5-16.75-37.5-37.5v-6
		c0-20.75,16.75-37.5,37.5-37.5h127v-33h-158v-24h144.5c20.75,0,37.5,16.75,37.5,37.5V352.498z M1374.527,283.498h-24v-45h-134v114
		h-24v-138h144.5c20.75,0,37.5,16.75,37.5,37.5V283.498z M1432.026,352.498h-24v-189h24V352.498z M1541.776,352.498l-89.25-45.5
		c-8.75-4.5-14.75-13.5-14.75-24s6-19.5,14.75-24c87.25-44.5,87.25-44.5,87.25-44.5h52.5l-135,68.5l136.75,69.5H1541.776z
		 M1742.372,289.773c-21.075,21.168-42.149,42.336-63.224,63.504c-22.692-0.259-45.383-0.519-68.075-0.779l115.699-90.35
		L1612.698,173.1h51.35l78.324,61.425c8.125,6.5,13.975,16.249,13.975,27.623C1756.347,273.523,1750.497,283.273,1742.372,289.773z
		 M2204.418,64.145c-1.152,0.192-6.412,0.96-11.71,1.689c-13.438,1.881-20.425,3.033-31.483,5.183
		c-5.26,0.998-11.134,2.111-13.054,2.457c-3.148,0.576-8.024,1.69-18.813,4.262c-2.112,0.499-4.876,1.114-6.143,1.344
		c-1.267,0.269-5.145,1.229-8.639,2.15c-3.494,0.922-8.754,2.304-11.71,3.072c-11.326,2.841-36.167,10.52-48.76,15.012
		c-3.801,1.382-7.526,2.649-8.255,2.803c-0.73,0.192-4.262,1.498-7.871,2.88c-3.571,1.382-7.487,2.879-8.639,3.263
		c-1.152,0.384-4.377,1.651-7.103,2.803c-2.765,1.19-6.719,2.802-8.831,3.647c-24.034,9.637-56.823,26.07-79.859,40.007
		c-11.48,6.911-18.429,11.288-23.804,14.974c-9.752,6.642-16.97,11.672-17.661,12.286c-0.309,0.281-1.092,0.871-1.971,1.498
		c-0.322,0.23-0.656,0.464-0.985,0.691c-1.498,1.017-4.202,3.014-7.161,5.256c2.959-2.242,5.663-4.238,7.16-5.255
		c0.329-0.227,0.663-0.461,0.985-0.691c-33.551,27.179-67.103,54.358-100.655,81.537c38.471,29.162,76.943,58.323,115.414,87.485
		h-51.35l-79.949-62.725c-8.125-6.5-13.976-16.25-13.976-27.625c0-11.309,6.708-20.011,13.976-27.624
		c17.302-18.123,43.328-35.883,64.599-48.93c0,0,0,0,0.001-0.001c44.096-31.135,84.323-51.226,114.766-64.201
		c0,0,64.762-28.619,156.839-45.343c18.813-3.417,20.08-3.647,38.202-6.143c21.156-2.918,26.761-3.571,42.541-5.03
		C2203.228,63.724,2209.026,63.417,2204.418,64.145z"/>
	<path d="M1867.93,200.65c0.276-0.239,0.631-0.558,1.117-1.011c0.22-0.206,0.546-0.489,0.954-0.833
		c-0.409,0.344-0.734,0.627-0.955,0.833C1868.561,200.092,1868.206,200.411,1867.93,200.65z"/>
	<path d="M1866.82,201.444c-6.534,4.811-13.591,6.079-18.64,6.378l0,0C1853.23,207.523,1860.286,206.255,1866.82,201.444
		c0.015-0.011,0.025-0.016,0.038-0.024C1866.845,201.428,1866.835,201.433,1866.82,201.444z"/>
	<path fill="#FFFFFF" d="M686.032,271.498h-127v-33h158v-24h-144.5c-20.75,0-37.5,16.75-37.5,37.5v6c0,20.75,16.75,37.5,37.5,37.5
		h127v33h-158v24h144.5c20.75,0,37.5-16.75,37.5-37.5v-6C723.532,288.248,706.782,271.498,686.032,271.498z"/>
	<path fill="#FFFFFF" d="M781.031,163.498h-24v151.5c0,20.75,16.75,37.5,37.5,37.5h144.5v-24h-158v-90h158v-24h-158V163.498z"/>
	<path fill="#FFFFFF" d="M1114.53,214.498h-144.5v24h158v33h-127c-20.75,0-37.5,16.75-37.5,37.5v6c0,20.75,16.75,37.5,37.5,37.5h151
		v-100.5C1152.03,231.248,1135.28,214.498,1114.53,214.498z M1128.03,328.498h-140.5v-33h140.5V328.498z"/>
	<path fill="#FFFFFF" d="M1337.027,214.498h-144.5v138h24v-114h134v45h24v-31.5C1374.527,231.248,1357.777,214.498,1337.027,214.498
		z"/>
	<rect x="1408.026" y="163.498" fill="#FFFFFF" width="24" height="189"/>
	<path fill="#FFFFFF" d="M1592.276,214.498h-52.5c0,0,0,0-87.25,44.5c-8.75,4.5-14.75,13.5-14.75,24s6,19.5,14.75,24l89.25,45.5
		h52.25l-136.75-69.5L1592.276,214.498z"/>
	<path fill="#FFFFFF" d="M1742.372,234.525l-78.324-61.425h-51.35l114.074,89.048l-115.699,90.35
		c22.692,0.26,45.383,0.52,68.075,0.779c21.075-21.168,42.149-42.336,63.224-63.504c8.125-6.5,13.975-16.25,13.975-27.625
		C1756.347,250.774,1750.497,241.025,1742.372,234.525z"/>
	<path fill="#FFFFFF" d="M2190.519,64.876c-15.78,1.459-21.385,2.112-42.541,5.03c-18.122,2.496-19.389,2.726-38.202,6.143
		c-92.077,16.724-156.839,45.343-156.839,45.343c-30.443,12.975-70.67,33.066-114.766,64.201c0,0,0,0-0.001,0.001
		c-21.271,13.048-47.297,30.808-64.599,48.93c-7.268,7.613-13.976,16.315-13.976,27.624c0,11.375,5.851,21.125,13.976,27.625
		l79.949,62.725h51.35c-38.471-29.162-76.943-58.323-115.414-87.485c33.552-27.179,67.104-54.358,100.655-81.537
		c-0.322,0.23-0.656,0.464-0.985,0.691c-1.498,1.016-4.202,3.013-7.16,5.255c2.959-2.242,5.663-4.239,7.161-5.256
		c0.329-0.227,0.663-0.461,0.985-0.691c0.879-0.627,1.662-1.217,1.971-1.498c0.691-0.614,7.909-5.644,17.661-12.286
		c5.375-3.686,12.324-8.063,23.804-14.974c23.036-13.937,55.825-30.37,79.859-40.007c2.112-0.845,6.066-2.457,8.831-3.647
		c2.726-1.152,5.951-2.419,7.103-2.803c1.152-0.384,5.068-1.881,8.639-3.263c3.609-1.382,7.141-2.688,7.871-2.88
		c0.729-0.154,4.454-1.421,8.255-2.803c12.593-4.492,37.434-12.171,48.76-15.012c2.956-0.768,8.216-2.15,11.71-3.072
		c3.494-0.921,7.372-1.881,8.639-2.15c1.267-0.23,4.031-0.845,6.143-1.344c10.789-2.572,15.665-3.686,18.813-4.262
		c1.92-0.346,7.794-1.459,13.054-2.457c11.058-2.15,18.045-3.302,31.483-5.183c5.298-0.729,10.558-1.497,11.71-1.689
		C2209.026,63.417,2203.228,63.724,2190.519,64.876z M1832.233,192.648c0.377-0.021,0.752-0.03,1.125-0.027
		C1832.985,192.618,1832.61,192.627,1832.233,192.648L1832.233,192.648z M1848.18,207.822L1848.18,207.822
		c5.049-0.299,12.106-1.567,18.64-6.378c0.015-0.011,0.025-0.016,0.038-0.024c-0.013,0.009-0.023,0.013-0.038,0.024
		C1860.286,206.255,1853.23,207.523,1848.18,207.822z M1869.047,199.639c-0.486,0.454-0.841,0.773-1.117,1.011
		C1868.206,200.411,1868.561,200.092,1869.047,199.639c0.22-0.206,0.546-0.489,0.954-0.833
		C1869.593,199.15,1869.267,199.433,1869.047,199.639z"/>
	<path fill="#FFFFFF" d="M214.91,408.329c-16-26.8-24.7-40.4-25.6-40.2c-1.2,0.2-23.4,35.8-32.3,51.6l-2.5,4.4l2.5,1.9
		c3.7,2.8,20.4,11.3,29.5,14.9c4.4,1.8,13.9,4.9,21,7c11,3.2,14.5,3.8,22.9,3.9c8.6,0.1,9.7-0.1,9.2-1.5
		C239.31,449.429,228.11,430.529,214.91,408.329z"/>
	<path fill="#FFFFFF" d="M333.61,366.229c-1.9,0.6-49.6,81.2-49.6,83.8c0,1.5,0.5,1.9,1.8,1.5c0.9-0.2,4.6-0.8,8.2-1.1
		c13.4-1.4,29.5-5.5,43.3-11c8.9-3.6,26.6-13.1,29.2-15.6c2-2,2-2-0.4-6.2C356.11,400.229,334.51,365.929,333.61,366.229z"/>
	<path fill="#FFFFFF" d="M166.01,198.829c-2.3-2.5-14-9.9-35.4-22.4c-17.6-10.2-32.3-18.5-32.8-18.5c-0.4,0-0.8,0.6-0.8,1.4
		c0,0.7,16.7,30.3,37.1,65.7c20.4,35.4,43.9,76.1,52.1,90.4c8.3,14.3,17.6,30.5,20.8,36s12.7,21.9,21,36.5
		c8.4,14.6,17.7,30.7,20.7,35.8c3,5.1,5.9,9,6.4,8.7c0.5-0.4,0.9-17.1,0.9-40.9v-40.2l-12.7-22
		C196.11,247.929,169.01,202.229,166.01,198.829z"/>
	<path fill="#FFFFFF" d="M327.51,326.429c24.5-42.5,47.2-81.9,73.4-127.3c12.2-21.1,22.1-39,22.1-39.8c0-0.7-0.4-1.4-0.8-1.4
		c-0.4,0-10,5.4-21.3,12.1c-11.2,6.6-24.9,14.6-30.4,17.7c-14.1,8-18.1,12.4-30.6,34.2c-5.8,10.2-25.2,43.5-43,74l-32.4,55.5
		l-0.3,38.9c-0.2,21.4-0.1,39.5,0.2,40.3c0.3,0.7,1,1.3,1.5,1.3s5.9-8.7,11.9-19.2c6.1-10.6,15.7-27.4,21.4-37.3
		C305.01,365.529,317.71,343.529,327.51,326.429z"/>
	<path fill="#FFFFFF" d="M173.91,335.229c-2.2-5.9-35.6-60.3-37.4-61c-1.1-0.5-19.9-0.7-41.7-0.5c-31.6,0.3-39.8,0.6-40.2,1.7
		c-0.7,1.9,4.8,26.3,8.5,37.5c10.9,33.2,34.2,67,62.2,90.4c3.8,3.1,7.6,5.6,8.5,5.4c1-0.2,8.7-12.6,19-30.8
		C174.21,340.329,175.11,338.429,173.91,335.229z"/>
	<path fill="#FFFFFF" d="M467.31,273.229c-2.6-1.9-75.1-1.8-79.6,0.1c-2.8,1.1-5.9,5.6-21,30.8c-9.8,16.3-17.7,30.6-17.7,31.9
		c0,1.4,4.3,10.1,9.6,19.4c5.3,9.4,14.1,25,19.7,34.8c5.5,9.7,10.6,17.7,11.3,17.7c3,0,24.7-20.6,34.9-33
		c22.5-27.5,35.1-54.5,42.5-90.5C468.91,275.029,469.01,274.329,467.31,273.229z"/>
	<path fill="#FFFFFF" d="M321.41,223.529c4.7-8.2,8.6-15.5,8.6-16.2c0-1.2-11.2-1.4-69.4-1.4c-38.2,0-69.7,0.4-70,0.8
		c-0.4,0.7,30.7,55.9,62.1,110c3.6,6.2,7,11.1,7.6,10.9c1-0.3,12.8-20.2,40.7-68.7C307.51,247.629,316.71,231.729,321.41,223.529z"
		/>
	<path fill="#FFFFFF" d="M88.81,253.429c17.4-0.4,32-0.9,32.5-1.2c1.7-1,0.2-4.3-10.7-23.6c-6.2-11.1-16.4-29.2-22.5-40.2
		c-6.2-11-11.8-20.6-12.6-21.4c-1.1-1.1-1.5-1-2.8,1c-5.2,8-13.1,33.4-15.3,49.3c-1.7,12-2.3,32.1-1.1,35
		C57.01,254.129,58.31,254.129,88.81,253.429z"/>
	<path fill="#FFFFFF" d="M399.71,252.029c0.5,0.5,7.8,1,16.3,1.2c8.5,0.1,23.2,0.3,32.5,0.2h17l0.3-13.4
		c0.4-22.1-5.6-49.8-14.8-68.1l-3.3-6.5l-2.1,2.8c-1.8,2.4-28.8,50.2-42.8,75.5C400.51,247.929,399.21,251.529,399.71,252.029z"/>
	<path fill="#FFFFFF" d="M260.31,149.129c-102.4,0.2-157.8,0.6-157.8,1.3c0,0.9,49.3,30.1,61.7,36.5l5.7,3h28.6
		c20.3,0,28.5,0.3,28.5,1.1c0,0.8,0.8,0.9,2.3,0.3c1.2-0.5,29.4-1.1,62.7-1.4c56.3-0.5,60.7-0.6,63.9-2.3
		c6.4-3.5,59.6-34.9,60.9-35.9c0.6-0.6,1.2-1.4,1.2-1.9S350.71,149.029,260.31,149.129z"/>
	<path fill="#FFFFFF" d="M223.31,125.729l2,2.2h35.3h35.2l2.6-3c1.4-1.7,5.4-8.1,8.9-14.3c3.5-6.1,11.8-20.7,18.5-32.4
		c6.7-11.7,12.2-22,12.2-23.1c0-1.5-1.9-2.5-9.2-5c-21.8-7.2-39.3-10.3-62.4-10.9c-13.9-0.4-21-0.2-31,1.2
		c-20.4,2.7-49.4,10.9-51.7,14.6c-0.7,1.1,4,10,18.3,34.9C212.61,108.329,222.21,124.429,223.31,125.729z"/>
	<path fill="#FFFFFF" d="M328.51,125.929c0.4,0.6,17.8,1,49.6,1c55.5,0,52.9,0.4,46.3-7.8c-21.6-26.8-56.9-55.6-62.6-50.9
		C359.31,70.229,327.81,124.829,328.51,125.929z"/>
	<path fill="#FFFFFF" d="M140.51,124.929c43.8,0,49.5-0.2,49.5-1.5c0-1.4-29.5-52.9-32.2-56.2c-1.6-2-3.3-1.6-10.9,3
		c-11.1,6.6-22.7,15.8-33.1,26c-10.6,10.5-22.8,25.1-22.8,27.3C91.01,124.729,98.71,124.929,140.51,124.929z"/>
</g>
</svg>
